<?xml version="1.0" encoding="UTF-8"?><svg id="Lag_2" xmlns="http://www.w3.org/2000/svg" viewBox="0 0 296.6 54.3"><defs><style>.cls-1{fill:red;stroke:#000;stroke-miterlimit:10;}</style></defs><g id="Lag_1-2"><path class="cls-1" d="m.54,35.87l15.15-.95c.33,2.46,1,4.34,2,5.62,1.64,2.09,3.98,3.13,7.03,3.13,2.27,0,4.03-.53,5.26-1.6,1.23-1.07,1.85-2.3,1.85-3.71s-.59-2.53-1.76-3.59c-1.17-1.05-3.89-2.05-8.16-2.99-6.98-1.57-11.97-3.66-14.94-6.26-3-2.6-4.5-5.92-4.5-9.95,0-2.65.77-5.15,2.3-7.51,1.53-2.36,3.84-4.21,6.93-5.55,3.08-1.35,7.31-2.02,12.67-2.02,6.59,0,11.61,1.23,15.06,3.67,3.46,2.45,5.51,6.35,6.17,11.69l-15.01.88c-.4-2.32-1.24-4.01-2.51-5.06-1.28-1.05-3.04-1.58-5.29-1.58-1.85,0-3.25.39-4.18,1.18-.94.79-1.41,1.74-1.41,2.87,0,.82.39,1.56,1.16,2.21.75.68,2.53,1.31,5.34,1.9,6.96,1.5,11.95,3.02,14.96,4.55,3.01,1.54,5.2,3.44,6.57,5.71,1.37,2.27,2.06,4.82,2.06,7.63,0,3.3-.91,6.35-2.74,9.14-1.83,2.79-4.38,4.9-7.66,6.35-3.28,1.44-7.42,2.16-12.41,2.16-8.77,0-14.84-1.69-18.21-5.06S.99,41.07.54,35.87Z"/><path class="cls-1" d="m50.25,1.38h16.65l11.6,37.09L89.95,1.38h16.16l-19.14,51.54h-17.26L50.25,1.38Z"/><path class="cls-1" d="m134.77,34.25v-10.72h24.61v21.97c-4.71,3.21-8.88,5.4-12.5,6.56s-7.92,1.74-12.88,1.74c-6.12,0-11.1-1.04-14.96-3.13-3.86-2.09-6.84-5.19-8.96-9.32-2.12-4.12-3.18-8.86-3.18-14.2,0-5.62,1.16-10.52,3.48-14.68,2.32-4.16,5.72-7.32,10.2-9.47,3.49-1.66,8.19-2.5,14.1-2.5s9.95.52,12.78,1.55c2.82,1.03,5.17,2.63,7.03,4.8,1.86,2.17,3.26,4.92,4.2,8.24l-15.36,2.74c-.63-1.95-1.71-3.43-3.22-4.46-1.51-1.03-3.44-1.55-5.78-1.55-3.49,0-6.28,1.21-8.35,3.64s-3.11,6.26-3.11,11.51c0,5.58,1.05,9.56,3.15,11.95,2.1,2.39,5.02,3.59,8.77,3.59,1.78,0,3.48-.26,5.1-.77,1.62-.52,3.47-1.39,5.55-2.64v-4.85h-10.65Z"/><path class="cls-1" d="m168.83,1.38h15.93v38.85h24.86v12.69h-40.78V1.38Z"/><path class="cls-1" d="m217.49,1.38h15.96v51.54h-15.96V1.38Z"/><path class="cls-1" d="m245.09,52.92V1.38h26.54c4.92,0,8.68.42,11.29,1.27s4.7,2.41,6.29,4.69c1.59,2.29,2.39,5.07,2.39,8.35,0,2.86-.61,5.33-1.83,7.4-1.22,2.07-2.9,3.76-5.03,5.04-1.36.82-3.22,1.5-5.59,2.04,1.9.63,3.28,1.27,4.15,1.9.59.42,1.43,1.33,2.55,2.71,1.11,1.38,1.86,2.45,2.23,3.2l7.71,14.93h-18l-8.51-15.75c-1.08-2.04-2.04-3.36-2.88-3.97-1.15-.8-2.45-1.2-3.9-1.2h-1.41v20.92h-16Zm16-30.66h6.71c.73,0,2.13-.23,4.22-.7,1.05-.21,1.92-.75,2.58-1.62.67-.87,1-1.86,1-2.99,0-1.66-.53-2.94-1.58-3.83-1.05-.89-3.04-1.34-5.94-1.34h-7v10.48Z"/></g></svg>